<?xml version="1.0"?>
<svg width="124.4" height="120.8" xmlns="http://www.w3.org/2000/svg" xmlns:svg="http://www.w3.org/2000/svg" enable-background="new 0 0 124.4 120.8" version="1.1" xml:space="preserve">
 <g class="layer">
  <title>Layer 1</title>
  <g id="svg_1">
   <path clip-rule="evenodd" d="m92.1,82.9c0.3,-2.2 -0.2,-4.4 -1.4,-6.3c-2,-3.1 -5.5,-4.6 -9.4,-4c-1.2,0.2 -2.3,0.6 -3.4,1.2c-2.1,1.3 -3.6,3.4 -4.1,5.7c-1.2,5.3 2.1,10.1 7.3,11c3.4,0.5 6.7,-0.6 8.6,-2.9l-2.6,-2.2l-0.2,0.2l-0.3,0.3c-1.3,1.1 -3,1.5 -4.6,1.3c-2.8,-0.5 -4.7,-2.8 -4.7,-5.7c0,-2.9 1.8,-5 4.6,-5.5c2.6,-0.4 5.3,1 6.4,3.4c0.1,0.2 0.1,0.3 0.1,0.4l-8.7,0l0,3l12.4,0l0,0.1z" fill="#901D1E" fill-rule="evenodd" id="svg_2"/>
   <path clip-rule="evenodd" d="m92.7,90.3l3.7,0l0,-6.9c0,-4.1 1,-5.8 3.6,-7c0.6,-0.3 1.3,-0.4 1.9,-0.6l0.6,-3.6l-0.8,0c-2.1,0.1 -3.6,0.8 -5.1,2.7c-0.1,0.2 -0.3,0.3 -0.3,0.4l0,-2.8l-3.7,0l0,17.8l0.1,0z" fill="#901D1E" fill-rule="evenodd" id="svg_3"/>
   <path clip-rule="evenodd" d="m63.4,58.5l21.6,-55.9c0.1,-0.2 0.2,-0.3 0.4,-0.4c0.1,-0.1 0.3,-0.1 0.5,-0.1c0.2,0 0.4,0 0.5,0.1c0.2,0.1 0.3,0.3 0.4,0.4l34.8,91.1c0.1,0.1 0.1,0.2 0.1,0.3c0,0.3 -0.1,0.4 -0.3,0.6c-0.2,0.2 -0.4,0.3 -0.6,0.3l-39,0c-0.3,0 -0.5,-0.1 -0.7,-0.3c-0.2,-0.2 -0.3,-0.4 -0.3,-0.6c0,-0.3 0.1,-0.5 0.3,-0.7c0.2,-0.2 0.4,-0.3 0.7,-0.3l37.5,0l-33.5,-87.4l-22.6,58.5c-0.1,0.2 -0.2,0.3 -0.3,0.4c-0.2,0.1 -0.4,0.1 -0.6,0.1c-0.3,0 -0.5,-0.1 -0.7,-0.3c-0.2,-0.2 -0.3,-0.4 -0.3,-0.6c0,-0.1 0,-0.3 0.1,-0.3l1.2,-3.2l-47,0l-12.6,34c-0.1,0.2 -0.2,0.3 -0.3,0.4c-0.2,0.1 -0.4,0.1 -0.6,0.1c-0.3,0 -0.5,-0.1 -0.7,-0.3c-0.1,-0.2 -0.3,-0.4 -0.3,-0.6c0,-0.1 0,-0.3 0.1,-0.3l12.8,-34.4c0.1,-0.2 0.2,-0.3 0.3,-0.4c0.2,-0.1 0.4,-0.1 0.6,-0.1l48.5,0l0,-0.1z" fill="#901D1E" fill-rule="evenodd" id="svg_6"/>
   <path clip-rule="evenodd" d="m54.1,75c-1.8,-1.6 -4.1,-2.5 -6.5,-2.5c-5.2,0 -9.4,4.1 -9.4,9.1c0,6.4 6.7,10.8 12.8,8.4c1.1,-0.4 2.1,-1 3,-1.9c4,-3.7 4,-9.6 0.1,-13.1m-1.3,8.7c-0.8,2 -2.9,3.4 -5.2,3.4c-3.1,0 -5.7,-2.5 -5.7,-5.7s2.5,-5.7 5.7,-5.7c4.1,0.1 6.8,4.1 5.2,8" fill="#901D1E" fill-rule="evenodd" id="svg_7"/>
   <path clip-rule="evenodd" d="m68.9,68.2c-0.9,-0.8 -2.1,-1.4 -3.3,-1.6c-4,-0.7 -7.1,1.6 -7.7,5.5c-0.1,0.1 -0.1,0.4 -0.1,0.6l-1.8,0l0,3.2l1.8,0l0,14.5l3.7,0l0,-14.6l5.7,0l0,-3.1l-5.7,0l0,-0.3c0.2,-1.8 1.6,-2.8 3.5,-2.4c0.4,0.1 0.8,0.3 1.1,0.6l0.2,0.2l0.1,0.1l2.4,-2l0,21.6l3.8,0l0,-23.8l-3.8,0l0,1.5l0.1,0z" fill="#901D1E" fill-rule="evenodd" id="svg_8"/>
   <polygon clip-rule="evenodd" fill="#901D1E" fill-rule="evenodd" id="svg_11" points="40.79999923706055,89.0999984741211 38.29999923706055,91.80000305175781 30.099998474121094,83.9000015258789 27.799999237060547,81.69999694824219 27.200000762939453,81.0999984741211 24.700000762939453,78.69999694824219 24.700000762939453,78.4000015258789 27.100000381469727,75.9000015258789 37,66.0999984741211 39.599998474121094,68.69999694824219 31.5,76.80000305175781 29.799999237060547,78.5 "/>
   <rect clip-rule="evenodd" fill="#901D1E" fill-rule="evenodd" height="23.5" id="svg_12" width="3.7" x="20.9" y="67"/>
  </g>
 </g>
</svg>